<!--?xml version="1.0" standalone="no"?-->
              <svg id="sw-js-blob-svg" viewBox="0 0 100 100" xmlns="http://www.w3.org/2000/svg" version="1.1">
                    <defs> 
                        <linearGradient id="sw-gradient" x1="0" x2="1" y1="1" y2="0">
                            <stop id="stop1" stop-color="rgba(248, 117, 55, 1)" offset="0%"></stop>
                            <stop id="stop2" stop-color="rgba(251, 168, 31, 1)" offset="100%"></stop>
                        </linearGradient>
                    </defs>
                <path fill="url(#sw-gradient)" d="M24.9,-32.3C30.2,-25.2,30.9,-15.4,31,-6.7C31.1,2,30.4,9.6,27.4,16.6C24.3,23.5,18.7,29.8,10.9,34.6C3.2,39.4,-6.8,42.7,-14.7,40C-22.7,37.4,-28.7,28.7,-32.2,19.9C-35.7,11.1,-36.7,2.2,-34.2,-5C-31.8,-12.3,-25.7,-17.9,-19.4,-24.7C-13.1,-31.5,-6.6,-39.6,1.6,-41.5C9.8,-43.4,19.6,-39.3,24.9,-32.3Z" width="100%" height="100%" transform="translate(50 50)" style="transition: 0.3s;" stroke-width="0"></path>
              </svg>